<?xml version="1.0" encoding="utf-8"?>
<!-- Generator: Adobe Illustrator 18.0.0, SVG Export Plug-In . SVG Version: 6.00 Build 0)  -->
<!DOCTYPE svg PUBLIC "-//W3C//DTD SVG 1.1//EN" "http://www.w3.org/Graphics/SVG/1.1/DTD/svg11.dtd">
<svg version="1.1" id="Layer_1" xmlns="http://www.w3.org/2000/svg" xmlns:xlink="http://www.w3.org/1999/xlink" x="0px" y="0px"
	 viewBox="0 0 3840 1080" enable-background="new 0 0 3840 1080" xml:space="preserve">
<path fill="#666666" d="M505.9,442.4c0,0,4.4-57.8,137.8-84.4s186.7-24.4,208.9-17.8c22.2,6.7,35.6,4.4,60,20
	c24.4,15.6-122.2,15.6,77.8,40c200,24.4,242.2,8.9,251.1,0s82.2-95.6,82.2-95.6s33.3-15.6,57.8,11.1c24.4,26.7,33.3,64.4,33.3,64.4
	c46.7,40,80,48.9,80,48.9s28.9,11.1,60,0c31.1-11.1,66.7-24.4,66.7-24.4l48.9-2.2c0,0-22.2,33.3,35.6-4.4c57.8-37.8,80-57.8,80-57.8
	s20-4.4,44.4,13.3c24.4,17.8,88.2,68.9,89.7,68.9s8.1-11.1,43.7,20s84.4,42.2,142.2,60c57.8,17.8,122.2,40,188.9,20
	c66.7-20,140-64.4,148.9-66.7s46.7-38.8,71.1-40.5c24.4-1.7,91.1,0,91.1,0s37.8-35,80,25s28.9,99.8,28.9,99.8s122.2,73.6,148.9,86.9
	c26.7,13.3,128.9,20,137.8,17.8c8.9-2.2,59.5-36.7,97.8,64.4s13.3,108.9,55.6,164.4s111.1,86.7,202.2,113.3
	c91.1,26.7,44.4-117.8,91.1,26.7s51.1,231.1,73.3,251.1c22.2,20,137.8,0-22.2,86.7c-160,86.7-220,68.9-491.1,82.2
	s-451.1-17.8-884.4-73.3c-433.3-55.6-648.9-135.6-817.8-146.7s-520-140-537.8-146.7c-17.8-6.7-115.6-171.1-113.3-222.2
	c2.2-51.1-13.3-220,31.1-246.7c44.4-26.7,206.7-128.9,206.7-128.9l-217.8-80L505.9,442.4z"/>
<path fill="#4D4D4D" d="M0,238c0,0-54.1-4.4,179.2-28.9s233.3-51.1,308.9-28.9s137.8,17.8,284.4,84.4s151.1,48.9,195.6,80
	c44.4,31.1,15.6,17.8,122.2,88.9s131.1,75.6,184.4,115.6c53.3,40,97.8,75.6,131.1,104.4c33.3,28.9,26.7,13.3,33.3,28.9
	c6.7,15.6,26.6,50.5,26.6,50.5l44.5,98.4c0,0,128.9,80,137.8,82.2s64.4,11.1,151.1,31.1c86.7,20,146.7,28.9,177.8,28.9
	s131.1,8.9,131.1,8.9l173.3-22.2c0,0,17.8-11.1,31.1-20c13.3-8.9,51.1-28.9,51.1-28.9s-3.8,18.9,57.8-46.7
	c61.6-65.6,91.1-75.6,95.6-84.4c4.4-8.9,20-108.9,100-184.4s57.8-106.7,146.7-157.8s151.1-71.1,231.1-73.3
	c80-2.2,86.7-22.2,184.4-15.6s160,4.4,200,8.9s106.7,17.8,137.8,26.7s120,17.8,131.1,15.6s44.4-8.9,44.4-8.9l93.3,24.4
	c0,0,43.5-6.7,82.9-2.2c39.4,4.4,52.7-11.1,110.5,37.8s206.7,160,226.7,320s-60,531.1-60,531.1s-167.7,25.4-255.6,28.9
	c-87.9,3.5-322.2-42.2-615.6-37.8s-311.1-28.9-660-15.6s-586.7-24.4-593.3-24.4s-1815.6,55.6-1835.6,48.9s-566.7-160-566.7-160
	s-73.3-182.2-73.3-306.7s-20-413.3,13.3-431.1c33.3-17.8,228.9-140,235.6-142.2C-198.6,260.2,0,238,0,238z"/>
<path fill="#333333" d="M-69,689.2l130.3-16.4l104.4,100c0,0,262.2,57.8,271.1,57.8s244.4,6.7,251.1,0c6.7-6.7,140-26.7,188.9-22.2
	c48.9,4.4,60-28.9,131.1-31.1s133.3-22.2,180-22.2s140-28.9,184.4-22.2s137.8-10.4,188.9,12.6c51.1,23,153.3,43,188.9,51.9
	c35.6,8.9,146.7,15.6,211.1,17.8s106.7,3.7,215.6,18.5s135.6-9.6,248.9-27.4c113.3-17.8,157.8-4.4,157.8-4.4s97.8,2.2,120,4.4
	c22.2,2.2,106.7,6.7,133.3,6.7s77.8,4.4,131.1,4.4s53.3,2.2,111.1-2.2s104.4-8.9,104.4-8.9l175.6-28.9c0,0,11.1,0,53.3-4.4
	c42.2-4.4,57.8-2.2,113.3,6.7c55.6,8.9,60,11.1,82.2,15.6s13.3,6.7,62.2,13.3c48.9,6.7,68.9,13.3,113.3,15.6
	c44.4,2.2,75.6,0,82.2-2.2c6.7-2.2,0,488.9,0,488.9s-471.1,182.2-511.1,175.6c-40-6.7-3846.7-42.2-3846.7-42.2l142.2-602.2
	L-69,689.2z"/>
</svg>
