<?xml version="1.0" encoding="utf-8"?>
<!-- Generator: Adobe Illustrator 18.0.0, SVG Export Plug-In . SVG Version: 6.00 Build 0)  -->
<!DOCTYPE svg PUBLIC "-//W3C//DTD SVG 1.1//EN" "http://www.w3.org/Graphics/SVG/1.1/DTD/svg11.dtd">
<svg version="1.1" id="Layer_1" xmlns="http://www.w3.org/2000/svg" xmlns:xlink="http://www.w3.org/1999/xlink" x="0px" y="0px"
	 viewBox="0 0 3840 1080" enable-background="new 0 0 3840 1080" xml:space="preserve">
<path id="backmountains" fill="#B3B3B3" d="M1398.6,442.1l33-44.1h40.4l55.1-13.2c0,0,51.1,4.4,62.2,0c11.1-4.4,24.4-15.6,37.8,0
	c13.3,15.6,51.1,24.7,51.1,24.7s44.4,34.5,51.1,32.6c6.7-1.9,42.2,21.9,42.2,21.9h32.4h45l29.2,19h33.8l30.7-18.8
	c0,0,22.2,1.6,33.3,0c11.1-1.6,66.7-0.6,77.8,0c11.1,0.6,73.3,7.2,86.7,9.5c13.3,2.2,48.9,16.4,73.3,9.3c24.4-7.1,82.2-26,91.1-18.8
	s64.4,1.6,80,0c15.6-1.6,44.4-8.3,60-10.5c15.6-2.2,64.4-18.9,75.6-22.8c11.1-3.9,53.3-17.2,66.7-17.2s73.3-15.6,100-15.6
	s113.3,4.4,137.8,13.3c24.4,8.9,64.4-12.9,80-5.4c15.6,7.6,84.4,3.1,102.2,7.6c17.8,4.4,83.7,18.2,104.4,28.7
	c20.7,10.5,111.1,30.2,144.4,21.9c33.3-8.3,526.7,36.1,533.3,40.6c6.7,4.4,66.7,33.3,66.7,33.3l-75.6,611.1l-1626.7,163.4
	l-1035.6-123.4l-431.1-200l84-322l440.5-169.1L1398.6,442.1z"/>
<polyline id="waterfall" fill="#F2F2F2" points="1878.4,483.1 1866,728.5 1863.7,758 1925,758 1908.1,729.1 1912,483 "/>
<path id="backlake_1_" fill="#F2F2F2" d="M1617,694h13l18.1-9h21.9l29.2-9h13.8h20h13h29h30h41h35h28h16h21l42.1,9h35.9h26l31.4,9
	h24.6h24l33.7,15.1l20,15.6l5.2,38.2c0,0-136.3,57.3-163,61.8c-26.7,4.4-311.1-22.2-331.1-26.7s-155.6-44-155.6-44l24.4-62.7
	L1617,694z"/>
<path id="mountain2" fill="#808080" d="M610.2,187.6l106.8-39.9l175.6,20.1l66.4-27.8c0,0,0.3-23.3,29.2-29.9
	c28.9-6.7,68.9-13.3,68.9-13.3s113.3,22.2,124.4,24.4c11.1,2.2,106.7,113.3,106.7,113.3l84.4,64.4l35.6,53.3
	c0,0,12.4,71.1,15.1,77.8s31.6,44.4,40.5,53.3c8.9,8.9,55.6,66.7,62.2,68.9c6.7,2.2,62.2,73.8,62.2,73.8l17.8,28.4l11.1,40
	c0,0,6.7,15.6,15.6,20s35.6,28.9,35.6,28.9l37.8,20l28.9,11.7l44.4,15l68.9,20c0,0,46-18.2,51.9-8s74.8,8,74.8,8l51.1,0.2l44.4-22.4
	l42.2-35.6c0,0,26.7-53.3,35.6-55.6s20-8.9,40-8.9s91.1-11.1,91.1-11.1s31.1-11.1,37.8-15.6c6.7-4.4,66.7-6.7,75.6-6.7
	c8.9,0,75.6-2.2,82.2-2.2c6.7,0,74.2,8.9,74.2,8.9l54.7,15.6c0,0,57.8,20,75.6,22.2c17.8,2.2,82.2-17.8,82.2-17.8l44.4-37.8
	l66.7-53.3l48.9-60c0,0,42.2-24.4,71.1-33.3c28.9-8.9,93.3-28.9,93.3-28.9s51.1-10.9,75.6-14.3c24.4-3.4,82.2-8.1,95.6-10.3
	s82.2-9.1,91.1-9.1s79.9,0,79.9,0l62.3-4l66.7-20l62.2-20l55.6-20c0,0,68.9-2.2,75.6,0c6.7,2.2,68.8,40,75.4,42.2
	c6.7,2.2,53.2,24.4,53.2,24.4V1074l-3897.6-22l-11.1-733.1l640-11.1L610.2,187.6z"/>
<path id="midlakelake" fill="#F2F2F2" d="M1632.2,721.7l-32.4,15.3H1580h-29l-26.8,14H1504h-28l-14.1,4.2l-39.9,13.2l-40,28.9V869
	l-2.1,89.4c0,0,59.7,26.6,79.9,26.6c20.2,0,100,38.9,100,38.9s102.2,24.4,142.2,26.7c40,2.2,122.2,9.3,148.9,9.1
	c26.7-0.2,188.9,2.4,224.4,0c35.6-2.4,168.9-9.1,168.9-9.1l62.2-75.6l11.1-57.8l-37.6-75.5l-23-73.4V751l-70.7,7.4l-26.5-7.7
	l-26.7-9.1l-25.3-11.8L1632.2,721.7z"/>
<path id="mountain1" fill="#666666" d="M3879,1179.2c0,0,0-673.7-13.1-667.2s-66.7-17.6-77.8-24.2s-73.3-2.2-82.2,0
	s-95.6,24.2-95.6,24.2s-55.6,29.1-68.9,30.5c-13.3,1.4-88.9,14.1-95.6,9.7c-6.7-4.4-106.7,0-124.4,0c-17.8,0-80,8.9-113.3,13.3
	S3077,626,3077,626l-73.3,50.7c0,0-68.9,31.1-113.3,50c-44.4,18.9-42.2,14.4-42.2,14.4s-93.3,15.6-128.9,15.6
	c-35.6,0-128.9-6.7-144.4-11.1c-15.6-4.4-93.3-18.9-93.3-18.9l-26.7-30l-100,20l-48.9,11.1l-81.7,28.9c-13.9,3.2-28.9,6.2-35.3,6.2
	c-13.3,0-153.3,28.9-153.3,28.9L1900,802h-152.1c0,0-85.7-3.4-99-1.2c-13.3,2.2-53.3-0.2-53.3-0.2l-91.1-28.9l-40-17.8l-44.4-22
	h-31.1l-39.9-40h-25v-46.9l-33.1-53.3l-33.1-28.8l-28.9-40.1l-26.7-17.8l-40-102.1l-46.7-77.9l-42.2-51.1c0,0-13.3-46.7-13.3-53.3
	c0-6.7-60-33.3-60-33.3l-33.3-31.1l-20-42.2c0,0-122.2-77.8-137.8-86.7c-15.6-8.9-100-22.2-111.1-13.3c-11.1,8.9-68.9-4.4-75.6,0
	c-6.7,4.4-115.6,0-122.2,0c-6.7,0-80,37.8-80,37.8l-35.6,60l-62.2,60l-35.6,35.6l-35.6,41.1L180,254l-108.9-5.5
	c0,0-66.7-5.5-88.9-5.5c-22.2,0-39.3,11.3-39.3,11.3l-42.8,86.3L55.6,1054c0,0,484.4,20,491.1,20c2.7,0,286.9-1.1,622.7-3.3
	l-445.7,132.7L3879,1179.2z"/>
<path id="forelake" fill="#F2F2F2" d="M1474.1,751.7l92.8,34.7l55.2,25.2V825l-44.9,18H1537l-63.4,15H1455l-9,18v18l15.6,17.6
	l22.2,17.7l28.9,17.7h49.3l60,9l44,19.8l55.6,13.2h42.4l49.9-24.1l36.6-6.7l48.1,2.2l45.3,28.6h42.2l35.6-15.2l26.7-11.1l28.9-20
	l13.3-15.6l28.9-8.9l31.1-4.4l28.9-4.4l48.9-6.7l35.6-6.7l31.2-11.1V870l8.8-27.3l-23.2-11.2c0,0-14.6-11.1-25.7-8.9
	s-51.1,2.2-51.1,2.2l-28.9-6.7l-28.9-17.8l11.1-20l24.4-6.7l28.7-14.4L1474.1,751.7z"/>
<g id="trees">
	<polygon fill="#666666" points="2165.7,782 2169.1,772 2172.6,782 	"/>
	<polygon fill="#666666" points="2172.7,781 2176.1,771 2179.6,781 	"/>
	<polygon fill="#666666" points="2176.7,779 2180.1,769 2183.6,779 	"/>
	<polygon fill="#666666" points="2179.7,777 2183.1,767 2186.6,777 	"/>
	<polygon fill="#666666" points="2186.7,774 2190.1,764 2193.6,774 	"/>
	<polygon fill="#666666" points="2191.7,772 2195.1,762 2198.6,772 	"/>
	<polygon fill="#666666" points="2201.7,767 2205.1,757 2208.6,767 	"/>
	<polygon fill="#666666" points="2210.7,762 2214.1,752 2217.6,762 	"/>
	<polygon fill="#666666" points="2213.7,764 2217.1,754 2220.6,764 	"/>
	<polygon fill="#666666" points="2223.7,759 2227.1,749 2230.6,759 	"/>
	<polygon fill="#666666" points="2237.7,757 2241.1,747 2244.6,757 	"/>
	<polygon fill="#666666" points="2244.7,752 2248.1,742 2251.6,752 	"/>
	<polygon fill="#666666" points="2249.7,752 2253.1,742 2256.6,752 	"/>
	<polygon fill="#666666" points="2252.7,749 2256.1,739 2259.6,749 	"/>
	<polygon fill="#666666" points="2254.7,749 2258.1,739 2261.6,749 	"/>
	<polygon fill="#666666" points="2257.7,747 2261.1,737 2264.6,747 	"/>
	<polygon fill="#666666" points="2260.7,747 2264.1,737 2267.6,747 	"/>
	<polygon fill="#666666" points="2263.7,744 2267.1,734 2270.6,744 	"/>
	<polygon fill="#666666" points="2266.7,747 2270.1,737 2273.6,747 	"/>
	<polygon fill="#666666" points="2269.7,744 2273.1,734 2276.6,744 	"/>
	<polygon fill="#666666" points="2272.7,742 2276.1,732 2279.6,742 	"/>
	<polygon fill="#666666" points="2275.7,742 2279.1,732 2282.6,742 	"/>
	<polygon fill="#666666" points="2230.7,757 2234.1,747 2237.6,757 	"/>
	<polygon fill="#666666" points="2282.7,741 2286.1,731 2289.6,741 	"/>
	<polygon fill="#666666" points="2289.7,736 2293.1,726 2296.6,736 	"/>
	<polygon fill="#666666" points="2296.7,734 2300.1,724 2303.6,734 	"/>
	<polygon fill="#666666" points="2299.7,734 2303.1,724 2306.6,734 	"/>
	<polygon fill="#666666" points="2302.7,731 2306.1,721 2309.6,731 	"/>
	<polygon fill="#666666" points="2305.7,728 2309.1,718 2312.6,728 	"/>
	<polygon fill="#666666" points="2308.7,728 2312.1,718 2315.6,728 	"/>
	<polygon fill="#666666" points="2311.7,729 2315.1,719 2318.6,729 	"/>
	<polygon fill="#666666" points="2314.7,727 2318.1,717 2321.6,727 	"/>
	<polygon fill="#666666" points="2321.7,727 2325.1,717 2328.6,727 	"/>
	<polygon fill="#666666" points="2318.7,729 2322.1,719 2325.6,729 	"/>
	<polygon fill="#666666" points="2324.7,724 2328.1,714 2331.6,724 	"/>
	<polygon fill="#666666" points="2331.7,723 2335.1,713 2338.6,723 	"/>
	<polygon fill="#666666" points="2334.7,722 2338.1,712 2341.6,722 	"/>
	<polygon fill="#666666" points="2337.7,724 2341.1,714 2344.6,724 	"/>
	<polygon fill="#666666" points="2340.7,721 2344.1,711 2347.6,721 	"/>
	<polygon fill="#666666" points="2343.7,723 2347.1,713 2350.6,723 	"/>
	<polygon fill="#666666" points="2350.7,719 2354.1,709 2357.6,719 	"/>
	<polygon fill="#666666" points="2346.7,719 2350.1,709 2353.6,719 	"/>
	<polygon fill="#666666" points="2355.7,720 2359.1,710 2362.6,720 	"/>
	<polygon fill="#666666" points="2359.7,719 2363.1,709 2366.6,719 	"/>
	<polygon fill="#666666" points="2363.7,716 2367.1,706 2370.6,716 	"/>
	<polygon fill="#666666" points="2366.7,718 2370.1,708 2373.6,718 	"/>
	<polygon fill="#666666" points="2369.7,718 2373.1,710 2376.6,718 	"/>
	<polygon fill="#666666" points="2372.7,716 2376.1,708 2379.6,716 	"/>
	<polygon fill="#666666" points="2377.7,715 2381.1,707 2384.6,715 	"/>
	<polygon fill="#666666" points="2380.7,714 2384.1,706 2387.6,714 	"/>
	<polygon fill="#666666" points="2383.7,712 2387.1,704 2390.6,712 	"/>
	<polygon fill="#666666" points="2387.7,714 2391.1,706 2394.6,714 	"/>
	<polygon fill="#666666" points="2391.7,710 2395.1,702 2398.6,710 	"/>
	<polygon fill="#666666" points="2396.7,710 2400.1,702 2403.6,710 	"/>
	<polygon fill="#666666" points="2399.7,710 2403.1,702 2406.6,710 	"/>
	<polygon fill="#666666" points="2402.7,711 2406.1,703 2409.6,711 	"/>
	<polygon fill="#666666" points="2406.7,710 2410.1,702 2413.6,710 	"/>
	<polygon fill="#666666" points="2409.7,709 2413.1,701 2416.6,709 	"/>
	<polygon fill="#666666" points="2412.7,710 2416.1,702 2419.6,710 	"/>
	<polygon fill="#666666" points="2417.7,707 2421.1,699 2424.6,707 	"/>
	<polygon fill="#666666" points="2420.7,707 2424.1,699 2427.6,707 	"/>
	<polygon fill="#666666" points="2425.7,705 2429.1,697 2432.6,705 	"/>
	<polygon fill="#666666" points="2430.7,705 2434.1,697 2437.6,705 	"/>
	<polygon fill="#666666" points="2436.7,703 2440.1,695 2443.6,703 	"/>
	<polygon fill="#666666" points="2433.7,704 2437.1,696 2440.6,704 	"/>
	<polygon fill="#666666" points="2442.7,703 2446.1,695 2449.6,703 	"/>
	<polygon fill="#666666" points="2447.7,703 2451.1,695 2454.6,703 	"/>
	<polygon fill="#666666" points="2278.7,739 2282.1,729 2285.6,739 	"/>
	<polygon fill="#666666" points="2193.7,772 2197.1,762 2200.6,772 	"/>
	<polygon fill="#666666" points="2203.7,767 2207.1,757 2210.6,767 	"/>
	<polygon fill="#666666" points="2183.7,776 2187.1,766 2190.6,776 	"/>
	<polygon fill="#666666" points="1571.7,798 1575.1,788 1578.6,798 	"/>
	<polygon fill="#666666" points="1650,976 1655.5,960 1661,976 	"/>
	<polygon fill="#666666" points="1656,982 1661.5,966 1667,982 	"/>
	<polygon fill="#666666" points="1664,982 1669.5,966 1675,982 	"/>
	<polygon fill="#666666" points="1672,982 1677.5,966 1683,982 	"/>
	<polygon fill="#666666" points="1681,990 1686.5,974 1692,990 	"/>
	<polygon fill="#666666" points="1678,990 1683.5,974 1689,990 	"/>
	<polygon fill="#666666" points="1689,989 1694.5,973 1700,989 	"/>
	<polygon fill="#666666" points="1662,984 1667.5,968 1673,984 	"/>
	<polygon fill="#666666" points="1696,990 1701.5,974 1707,990 	"/>
	<polygon fill="#666666" points="1707,992 1712.5,976 1718,992 	"/>
	<polygon fill="#666666" points="1701,992 1706.5,976 1712,992 	"/>
	<polygon fill="#666666" points="1713,1000 1718.5,984 1724,1000 	"/>
	<polygon fill="#666666" points="1719,998 1724.5,982 1730,998 	"/>
	<polygon fill="#666666" points="1726,997 1731.5,981 1737,997 	"/>
	<polygon fill="#666666" points="1734,997 1739.5,981 1745,997 	"/>
	<polygon fill="#666666" points="1817,974 1822.5,958 1828,974 	"/>
	<polygon fill="#666666" points="1743,1000 1748.5,984 1754,1000 	"/>
	<polygon fill="#666666" points="1749,997 1754.5,981 1760,997 	"/>
	<polygon fill="#666666" points="1760,995 1765.5,979 1771,995 	"/>
	<polygon fill="#666666" points="1755,997 1760.5,981 1766,997 	"/>
	<polygon fill="#666666" points="1740,998 1745.5,982 1751,998 	"/>
	<polygon fill="#666666" points="1768,992 1773.5,976 1779,992 	"/>
	<polygon fill="#666666" points="1846,966 1851.5,950 1857,966 	"/>
	<polygon fill="#666666" points="1840,968 1845.5,952 1851,968 	"/>
	<polygon fill="#666666" points="1829,971 1834.5,955 1840,971 	"/>
	<polygon fill="#666666" points="1833,968 1838.5,952 1844,968 	"/>
	<polygon fill="#666666" points="1823,974 1828.5,958 1834,974 	"/>
	<polygon fill="#666666" points="1812,976 1817.5,960 1823,976 	"/>
	<polygon fill="#666666" points="1905,979 1910.5,963 1916,979 	"/>
	<polygon fill="#666666" points="1920,987 1925.5,971 1931,987 	"/>
	<polygon fill="#666666" points="1796,979 1801.5,963 1807,979 	"/>
	<polygon fill="#666666" points="1782,984 1787.5,968 1793,984 	"/>
	<polygon fill="#666666" points="1774,995 1779.5,979 1785,995 	"/>
	<polygon fill="#666666" points="1788,984 1793.5,968 1799,984 	"/>
	<polygon fill="#666666" points="1806,971 1811.5,955 1817,971 	"/>
	<polygon fill="#666666" points="1858,968 1863.5,952 1869,968 	"/>
	<polygon fill="#666666" points="1875,968 1880.5,952 1886,968 	"/>
	<polygon fill="#666666" points="1866,963 1871.5,947 1877,963 	"/>
	<polygon fill="#666666" points="1884,971 1889.5,955 1895,971 	"/>
	<polygon fill="#666666" points="1894,968 1899.5,952 1905,968 	"/>
	<polygon fill="#666666" points="1852,963 1857.5,947 1863,963 	"/>
	<polygon fill="#666666" points="1903,976 1908.5,960 1914,976 	"/>
	<polygon fill="#666666" points="1914,981 1919.5,965 1925,981 	"/>
	<polygon fill="#666666" points="1926,989 1931.5,973 1937,989 	"/>
	<polygon fill="#666666" points="1932,991 1937.5,974 1943,991 	"/>
	<polygon fill="#666666" points="1943,996 1948.5,979 1954,996 	"/>
	<polygon fill="#666666" points="2089,933 2094.5,916 2100,933 	"/>
	<polygon fill="#666666" points="2083,938 2088.5,921 2094,938 	"/>
	<polygon fill="#666666" points="2077,944 2082.5,927 2088,944 	"/>
	<polygon fill="#666666" points="2071,950 2076.5,933 2082,950 	"/>
	<polygon fill="#666666" points="2065,955 2070.5,938 2076,955 	"/>
	<polygon fill="#666666" points="2098,933 2103.5,916 2109,933 	"/>
	<polygon fill="#666666" points="2120,929 2125.5,912 2131,929 	"/>
	<polygon fill="#666666" points="2142,920 2147.5,903 2153,920 	"/>
	<polygon fill="#666666" points="2133,924 2138.5,907 2144,924 	"/>
	<polygon fill="#666666" points="2111,929 2116.5,912 2122,929 	"/>
	<polygon fill="#666666" points="2148,924 2153.5,907 2159,924 	"/>
	<polygon fill="#666666" points="2126,925 2131.5,908 2137,925 	"/>
	<polygon fill="#666666" points="2158,920 2163.5,903 2169,920 	"/>
	<polygon fill="#666666" points="2167,920 2172.5,903 2178,920 	"/>
	<polygon fill="#666666" points="2178,916 2183.5,899 2189,916 	"/>
	<polygon fill="#666666" points="2192,920 2197.5,903 2203,920 	"/>
	<polygon fill="#666666" points="2209,916 2214.5,899 2220,916 	"/>
	<polygon fill="#666666" points="2218,911 2223.5,894 2229,911 	"/>
	<polygon fill="#666666" points="2203,911 2208.5,894 2214,911 	"/>
	<polygon fill="#666666" points="2236,907 2241.5,890 2247,907 	"/>
	<polygon fill="#666666" points="2225,907 2230.5,890 2236,907 	"/>
	<polygon fill="#666666" points="2246,911 2251.5,894 2257,911 	"/>
	<polygon fill="#666666" points="2251,900 2256.5,886.8 2262,900 	"/>
	<polygon fill="#666666" points="2259,900 2264.5,886.8 2270,900 	"/>
	<polygon fill="#666666" points="2265,897 2270.5,883.8 2276,897 	"/>
	<polygon fill="#666666" points="2273,897 2278.5,883.8 2284,897 	"/>
	<polygon fill="#666666" points="2280,893 2285.5,879.8 2291,893 	"/>
	<polygon fill="#666666" points="2286,893 2291.5,879.8 2297,893 	"/>
	<polygon fill="#666666" points="2195.1,914 2201.6,900.8 2208,914 	"/>
	<polygon fill="#666666" points="1878,968 1883.5,952 1889,968 	"/>
	<polygon fill="#666666" points="1888,968 1893.5,952 1899,968 	"/>
	<polygon fill="#666666" points="1800,979 1805.5,963 1811,979 	"/>
	<polygon fill="#666666" points="1766,995 1771.5,979 1777,995 	"/>
	<polygon fill="#666666" points="1567.7,797 1571.1,787 1574.6,797 	"/>
	<polygon fill="#666666" points="1556.7,794 1560.1,784 1563.6,794 	"/>
	<polygon fill="#666666" points="1543.7,789 1547.1,779 1550.6,789 	"/>
	<polygon fill="#666666" points="1537.7,789 1541.1,779 1544.6,789 	"/>
	<polygon fill="#666666" points="1528.7,785 1532.1,775 1535.6,785 	"/>
	<polygon fill="#666666" points="1522.7,785 1526.1,775 1529.6,785 	"/>
	<polygon fill="#666666" points="1517.7,780 1521.1,770 1524.6,780 	"/>
	<polygon fill="#666666" points="1510.7,777 1514.1,767 1517.6,777 	"/>
	<polygon fill="#666666" points="1502.7,778 1506.1,768 1509.6,778 	"/>
	<polygon fill="#666666" points="1494.7,773 1498.1,763 1501.6,773 	"/>
	<polygon fill="#666666" points="1485.7,768 1489.1,758 1492.6,768 	"/>
	<polygon fill="#666666" points="1478.7,768 1482.1,758 1485.6,768 	"/>
	<polygon fill="#666666" points="1488.7,771 1492.1,761 1495.6,771 	"/>
	<polygon fill="#666666" points="1464.7,763 1468.1,753 1471.6,763 	"/>
	<polygon fill="#666666" points="1453.7,758 1457.1,748 1460.6,758 	"/>
	<polygon fill="#666666" points="1444.7,749 1448.1,739 1451.6,749 	"/>
	<polygon fill="#666666" points="1456.7,757 1460.1,747 1463.6,757 	"/>
	<polygon fill="#666666" points="1467.7,762 1471.1,752 1474.6,762 	"/>
	<polygon fill="#666666" points="1476.7,768 1480.1,758 1483.6,768 	"/>
	<polygon fill="#666666" points="1435.7,749 1439.1,739 1442.6,749 	"/>
	<polygon fill="#666666" points="1429.7,744 1433.1,734 1436.6,744 	"/>
	<polygon fill="#666666" points="1409.7,735 1413.1,725 1416.6,735 	"/>
	<polygon fill="#666666" points="1399.7,735 1403.1,725 1406.6,735 	"/>
	<polygon fill="#666666" points="1404.7,734 1408.1,724 1411.6,734 	"/>
	<polygon fill="#666666" points="1390.7,736 1394.1,726 1397.6,736 	"/>
	<polygon fill="#666666" points="1395.7,738 1399.1,728 1402.6,738 	"/>
	<polygon fill="#666666" points="1385.7,733 1389.1,723 1392.6,733 	"/>
	<polygon fill="#666666" points="1414.7,738 1418.1,728 1421.6,738 	"/>
	<polygon fill="#666666" points="1419.7,738 1423.1,728 1426.6,738 	"/>
	<polygon fill="#666666" points="1422.7,740 1426.1,730 1429.6,740 	"/>
	<polygon fill="#666666" points="1426.7,739 1430.1,729 1433.6,739 	"/>
	<polygon fill="#666666" points="1438.7,746 1442.1,736 1445.6,746 	"/>
	<polygon fill="#666666" points="1447.7,751 1451.1,741 1454.6,751 	"/>
	<polygon fill="#666666" points="1512.7,780 1516.1,770 1519.6,780 	"/>
	<polygon fill="#666666" points="1535.7,791 1539.1,781 1542.6,791 	"/>
</g>
<path id="foreground" fill="#1A1A1A" d="M-10.3,654l72.2,11.5l70.9,13.5l68.8-12.1l77.7,34.5l68.9,31.1l73.3,15.7l60,15.7H522
	l57.3,15.3l53.3,26.7H686l46.7,24.3l55.6,11.1l51.1,26.4l57.8,13.1H937l60.1,25h44.9l52.9,13h42.1h65l68.4,13.6l73.3,8.9l51.1,19.9
	l35.6,26.6h64.6l33.2,16h37.8l37.8,12.8l84.4,24.2h30.8l71.4,9.3l97.8-13.3l73.3-17.8l42.2-24.4l60-15.6l84.4-9.1l31.1,10.9h66.7
	l53.3-17.3l55.6-37.8l60-13.3l55.6-6.7l71.1,2.2l64.4-24.4l48.9-22.2l35.6-20l77.8-2.2l51.1,13.1l64.4,15.8l84.4,13.3l80-20.2
	l80-9.3h33.8l28.4-37.2l88.9-15.6l53.3,2.2l40-11.1l44.4-13.3h48.9l57.8,11.1l46.7,8.9l71.1-11.1l73.3-22.2l35.6-2l60,11.3h75.6
	l55.6,184l-71.1,284.4c0,0-780,226.7-788.9,226.7c-8.9,0-2593.3,15.6-2593.3,15.6S43.8,1341.4,21.6,1332.6S-309.6,1137-309.6,1137
	l-22.2-249.1L-194,654H-10.3z"/>
</svg>
